# xmcd
#
# Track frame offsets:
#	150
#	15502
#	27990
#	43655
#	57830
#	70230
#	86365
#	100490
#	114027
#	126095
#	138810
#	151955
#
# Disc length: 2213 seconds
#
# Revision: 1
# Processed by: cddbd v1.5.1PL0 Copyright (c) Steve Scherf et al.
# Submitted via: CDex 1.50Beta5
#
DISCID=8f08a30c
DTITLE=フォーク・クルセダーズ - 青春のバイブル’60 Disc 1
DYEAR=1994
DGENRE=Pop
TTITLE0=フォーク・クルセダーズ/帰ってきたヨッパライ
TTITLE1=リガニーズ/海は恋してる
TTITLE2=フォー・セインツ/小さな日記
TTITLE3=トワ・エ・モワ/或る日突然
TTITLE4=市川染五郎/野バラ咲く路
TTITLE5=端田宣彦/風
TTITLE6=フォーク・クルセダーズ/悲しくてやりきれない
TTITLE7=マイク真木/バラが咲いた
TTITLE8=ブロード・サイド・フォー/若者たち
TTITLE9=森山良子/この広い野原いっぱい
TTITLE10=長谷川きよし/別れのサンバ
TTITLE11=新谷のり子/フランシーヌの場合
EXTD=
EXTT0=
EXTT1=
EXTT2=
EXTT3=
EXTT4=
EXTT5=
EXTT6=
EXTT7=
EXTT8=
EXTT9=
EXTT10=
EXTT11=
PLAYORDER=
